name rise43.5482peak65.4966fall89.1036.mot
datacolumns 19
datarows 22
range 6.246639 6.281640
endheader
time	ground_force1_vx	ground_force1_vy	ground_force1_vz	ground_force1_px	ground_force1_py	ground_force1_pz	ground_force2_vx	ground_force2_vy	ground_force2_vz	ground_force2_px	ground_force2_py	ground_force2_pz	ground_torque1_x	ground_torque1_y	ground_torque1_z	ground_torque2_x	ground_torque2_y	ground_torque2_z	
6.246639	0.000000	0.000000	0.000000	0.000000	0.000000	0.000000	-18.623593	768.735171	-46.954842	0.120981	0.000000	-0.088406	0.000000	0.000000	0.000000	0.000000	-14.816740	0.000000	
6.248308	0.000000	0.000000	0.000000	0.000000	0.000000	0.000000	-19.030168	770.642011	-47.145520	0.120158	0.000000	-0.088400	0.000000	0.000000	0.000000	0.000000	-14.832523	0.000000	
6.249974	0.000000	0.000000	0.000000	0.000000	0.000000	0.000000	-19.433406	772.550162	-47.337326	0.119338	0.000000	-0.088393	0.000000	0.000000	0.000000	0.000000	-14.846920	0.000000	
6.251635	0.000000	0.000000	0.000000	0.000000	0.000000	0.000000	-19.833240	774.458110	-47.530005	0.118522	0.000000	-0.088385	0.000000	0.000000	0.000000	0.000000	-14.859876	0.000000	
6.253304	0.000000	0.000000	0.000000	0.000000	0.000000	0.000000	-20.229620	776.364311	-47.723297	0.117711	0.000000	-0.088376	0.000000	0.000000	0.000000	0.000000	-14.871341	0.000000	
6.254975	0.000000	0.000000	0.000000	0.000000	0.000000	0.000000	-20.622508	778.267197	-47.916941	0.116904	0.000000	-0.088366	0.000000	0.000000	0.000000	0.000000	-14.881265	0.000000	
6.256637	0.000000	0.000000	0.000000	0.000000	0.000000	0.000000	-21.011879	780.165179	-48.110676	0.116102	0.000000	-0.088356	0.000000	0.000000	0.000000	0.000000	-14.889602	0.000000	
6.258301	0.000000	0.000000	0.000000	0.000000	0.000000	0.000000	-21.397727	782.056651	-48.304237	0.115306	0.000000	-0.088344	0.000000	0.000000	0.000000	0.000000	-14.896305	0.000000	
6.259974	0.000000	0.000000	0.000000	0.000000	0.000000	0.000000	-21.780061	783.939991	-48.497360	0.114515	0.000000	-0.088331	0.000000	0.000000	0.000000	0.000000	-14.901331	0.000000	
6.261640	0.000000	0.000000	0.000000	0.000000	0.000000	0.000000	-22.158905	785.813563	-48.689782	0.113729	0.000000	-0.088317	0.000000	0.000000	0.000000	0.000000	-14.904641	0.000000	
6.263304	0.000000	0.000000	0.000000	0.000000	0.000000	0.000000	-22.534305	787.675724	-48.881242	0.112949	0.000000	-0.088301	0.000000	0.000000	0.000000	0.000000	-14.906198	0.000000	
6.264975	0.000000	0.000000	0.000000	0.000000	0.000000	0.000000	-22.906321	789.524823	-49.071477	0.112175	0.000000	-0.088285	0.000000	0.000000	0.000000	0.000000	-14.905968	0.000000	
6.266637	0.000000	0.000000	0.000000	0.000000	0.000000	0.000000	-23.275037	791.359209	-49.260230	0.111407	0.000000	-0.088267	0.000000	0.000000	0.000000	0.000000	-14.903920	0.000000	
6.268309	0.000000	0.000000	0.000000	0.000000	0.000000	0.000000	-23.640553	793.177228	-49.447245	0.110646	0.000000	-0.088247	0.000000	0.000000	0.000000	0.000000	-14.900028	0.000000	
6.269972	0.000000	0.000000	0.000000	0.000000	0.000000	0.000000	-24.002993	794.977231	-49.632268	0.109890	0.000000	-0.088227	0.000000	0.000000	0.000000	0.000000	-14.894271	0.000000	
6.271642	0.000000	0.000000	0.000000	0.000000	0.000000	0.000000	-24.362500	796.757574	-49.815051	0.109140	0.000000	-0.088205	0.000000	0.000000	0.000000	0.000000	-14.886629	0.000000	
6.273306	0.000000	0.000000	0.000000	0.000000	0.000000	0.000000	-24.719241	798.516623	-49.995350	0.108396	0.000000	-0.088181	0.000000	0.000000	0.000000	0.000000	-14.877090	0.000000	
6.274970	0.000000	0.000000	0.000000	0.000000	0.000000	0.000000	-25.073402	800.252755	-50.172924	0.107659	0.000000	-0.088157	0.000000	0.000000	0.000000	0.000000	-14.865646	0.000000	
6.276639	0.000000	0.000000	0.000000	0.000000	0.000000	0.000000	-25.425195	801.964362	-50.347538	0.106927	0.000000	-0.088130	0.000000	0.000000	0.000000	0.000000	-14.852292	0.000000	
6.278310	0.000000	0.000000	0.000000	0.000000	0.000000	0.000000	-25.774854	803.649851	-50.518962	0.106200	0.000000	-0.088102	0.000000	0.000000	0.000000	0.000000	-14.837032	0.000000	
6.279970	0.000000	0.000000	0.000000	0.000000	0.000000	0.000000	-26.122636	805.307649	-50.686973	0.105479	0.000000	-0.088073	0.000000	0.000000	0.000000	0.000000	-14.819873	0.000000	
6.281640	0.000000	0.000000	0.000000	0.000000	0.000000	0.000000	-26.468821	806.936203	-50.851351	0.104763	0.000000	-0.088042	0.000000	0.000000	0.000000	0.000000	-14.800827	0.000000	
